<svg xmlns="http://www.w3.org/2000/svg" xmlns:xlink="http://www.w3.org/1999/xlink" width="137" height="781"><svg width="17" height="16"><path d="M16.156 2.356a.67.67 0 0 1 .244.497.868.868 0 0 1-.169.572c-4.737 6.763-7.3 10.412-7.687 10.95-.4.538-.916.81-1.547.816-.631.006-1.153-.266-1.566-.816L.22 7.044a.884.884 0 0 1-.169-.581.68.68 0 0 1 .244-.507c.637-.55 1.35-1.043 2.137-1.481a.678.678 0 0 1 .544-.037c.2.062.362.18.487.356l3.525 4.95 6.02-8.55a.877.877 0 0 1 .477-.347.736.736 0 0 1 .553.047c.826.45 1.532.937 2.12 1.462z" fill="#353535" fill-rule="evenodd"/></svg><svg width="28" height="28" y="16"><g transform="translate(2 2)" fill="none" fill-rule="evenodd"><rect stroke="#353535" stroke-width="2" fill="#FFF" width="24" height="24" rx="2"/><path d="M20.156 6.356a.67.67 0 0 1 .244.497.868.868 0 0 1-.169.572c-4.737 6.763-7.3 10.412-7.687 10.95-.4.538-.916.81-1.547.816-.631.006-1.153-.266-1.566-.816L4.22 11.044a.884.884 0 0 1-.169-.582.68.68 0 0 1 .244-.506c.637-.55 1.35-1.043 2.137-1.481a.678.678 0 0 1 .544-.037c.2.062.362.18.488.356l3.525 4.95 6.018-8.55a.877.877 0 0 1 .478-.347.736.736 0 0 1 .553.047c.826.45 1.532.937 2.12 1.462z" fill="#353535"/></g></svg><svg width="48" height="42" y="44"><g transform="translate(1 1)" fill="none" fill-rule="evenodd"><rect stroke="#55832A" stroke-width="2" fill="#FFF" width="46" height="40" rx="3"/><path d="M32.516 12.916c.175.145.27.339.284.58.015.24-.051.462-.197.666-5.527 7.89-8.517 12.148-8.969 12.775-.466.628-1.068.945-1.804.952-.737.007-1.346-.31-1.827-.951l-6.081-8.554a1.03 1.03 0 0 1-.197-.678.794.794 0 0 1 .284-.59 14.818 14.818 0 0 1 2.494-1.729.791.791 0 0 1 .634-.043c.234.073.423.211.57.415l4.112 5.775 7.022-9.975c.145-.204.331-.339.557-.404a.86.86 0 0 1 .646.054c.962.525 1.786 1.094 2.472 1.707z" fill="#55832A"/></g></svg><svg width="28" height="28" y="86"><rect stroke="#353535" stroke-width="2" fill="#FFF" x="2" y="2" width="24" height="24" rx="2" fill-rule="evenodd"/></svg><svg width="14" height="14" y="114"><path d="M9.775 7l3.544 3.563a.85.85 0 0 1 .281.534.619.619 0 0 1-.15.516 10.65 10.65 0 0 1-1.837 1.837.619.619 0 0 1-.516.15.973.973 0 0 1-.553-.262L7 9.774l-3.563 3.563a.888.888 0 0 1-.534.262.673.673 0 0 1-.534-.15A11.377 11.377 0 0 1 .55 11.631a.673.673 0 0 1-.15-.534.888.888 0 0 1 .262-.534L4.226 7 .681 3.456A.927.927 0 0 1 .4 2.903a.619.619 0 0 1 .15-.515A10.99 10.99 0 0 1 2.369.55.673.673 0 0 1 2.903.4a.85.85 0 0 1 .534.281L7 4.075 10.544.681A.927.927 0 0 1 11.097.4a.619.619 0 0 1 .516.15c.687.538 1.3 1.15 1.837 1.838a.617.617 0 0 1 .15.515.927.927 0 0 1-.281.553L9.775 7z" fill="#FFF" fill-rule="evenodd"/></svg><svg width="16" height="16" y="128"><path d="M10.945 7.707l4.134 4.157c.19.175.3.382.328.623a.72.72 0 0 1-.175.602 12.426 12.426 0 0 1-2.143 2.143.722.722 0 0 1-.602.175 1.135 1.135 0 0 1-.645-.306l-4.135-4.156L3.551 15.1a1.036 1.036 0 0 1-.623.306.785.785 0 0 1-.624-.175A13.273 13.273 0 0 1 .182 13.11a.785.785 0 0 1-.175-.623c.03-.24.132-.448.307-.623L4.47 7.707.335 3.573a1.082 1.082 0 0 1-.328-.645.722.722 0 0 1 .175-.602A12.822 12.822 0 0 1 2.304.182a.785.785 0 0 1 .624-.175c.24.03.448.139.623.328l4.156 3.96 4.135-3.96c.19-.19.404-.299.645-.328.24-.029.441.03.602.175a12.426 12.426 0 0 1 2.143 2.144c.146.16.204.361.175.602a1.08 1.08 0 0 1-.328.645l-4.134 4.134z" fill="#FFF" fill-rule="evenodd"/></svg><svg width="12" height="8" y="144"><path d="M.954 1.885a.615.615 0 0 1 0-.656c.107-.214.292-.33.554-.35.01-.01.222-.024.635-.044.413-.019.989-.04 1.728-.065A64.841 64.841 0 0 1 6 .733c.68 0 1.39.012 2.13.037.738.024 1.314.046 1.727.065.413.02.625.034.635.044.243.02.427.136.554.35a.615.615 0 0 1 0 .656A22.524 22.524 0 0 1 9.114 4.73c-.773.982-1.371 1.697-1.794 2.144-.423.447-.707.734-.853.86A.697.697 0 0 1 6 7.908a.697.697 0 0 1-.467-.175c-.146-.126-.43-.413-.853-.86S3.66 5.71 2.886 4.729A22.524 22.524 0 0 1 .954 1.885z" fill="#353535" fill-rule="evenodd"/></svg><svg width="13" height="12" y="152"><path d="M10.918 6.17v4.477a.67.67 0 0 1-.183.48.817.817 0 0 1-.476.24 30.549 30.549 0 0 1-4.8.372 30.4 30.4 0 0 1-4.8-.372.817.817 0 0 1-.477-.24.67.67 0 0 1-.182-.48V2.139c0-.192.063-.362.188-.51a.769.769 0 0 1 .47-.27C2.236 1.11 4.192.987 5.689.987c.05 0 .12.019.206.052l.622.635c-.3.422-.587.835-.859 1.237H5.52c-1.231 0-2.152.035-3.595.219v6.478c1.263.176 2.162.264 3.535.264 1.372 0 2.272-.088 3.534-.264V6.201c.373-.264.752-.542 1.14-.833l.785.802zM12.2 1.197c.013.326-.005.895-.055 1.706-.049.812-.15 1.54-.3 2.188a.352.352 0 0 1-.265.278.237.237 0 0 1-.101.016.357.357 0 0 1-.265-.112l-1.077-1.097c-.452.34-.886.727-1.302 1.003-.416.275-1.382 1.066-1.486 1.093-.38.117-.72.021-1.021-.286-.302-.308-.395-.655-.28-1.042.025-.101.8-1.164 1.071-1.588.27-.424.65-.79.983-1.256L7.026 1.002a.353.353 0 0 1-.094-.374c.032-.143.123-.233.273-.27C8.21.119 9.363 0 10.668 0c.686 0 1.068.013 1.146.04a.336.336 0 0 1 .234.107.408.408 0 0 1 .11.243c.015.212.029.481.042.807z" fill="#FFF" fill-rule="evenodd"/></svg><svg width="13" height="12" y="164"><path d="M10.918 6.17v4.477a.67.67 0 0 1-.183.48.817.817 0 0 1-.476.24 30.549 30.549 0 0 1-4.8.372 30.4 30.4 0 0 1-4.8-.372.817.817 0 0 1-.477-.24.67.67 0 0 1-.182-.48V2.139c0-.192.063-.362.188-.51a.769.769 0 0 1 .47-.27C2.236 1.11 4.192.987 5.689.987c.05 0 .12.019.206.052l.622.635c-.3.422-.587.835-.859 1.237H5.52c-1.231 0-2.152.035-3.595.219v6.478c1.263.176 2.162.264 3.535.264 1.372 0 2.272-.088 3.534-.264V6.201c.373-.264.752-.542 1.14-.833l.785.802zM12.2 1.197c.013.326-.005.895-.055 1.706-.049.812-.15 1.54-.3 2.188a.352.352 0 0 1-.265.278.237.237 0 0 1-.101.016.357.357 0 0 1-.265-.112l-1.077-1.097c-.452.34-.886.727-1.302 1.003-.416.275-1.382 1.066-1.486 1.093-.38.117-.72.021-1.021-.286-.302-.308-.395-.655-.28-1.042.025-.101.8-1.164 1.071-1.588.27-.424.65-.79.983-1.256L7.026 1.002a.353.353 0 0 1-.094-.374c.032-.143.123-.233.273-.27C8.21.119 9.363 0 10.668 0c.686 0 1.068.013 1.146.04a.336.336 0 0 1 .234.107.408.408 0 0 1 .11.243c.015.212.029.481.042.807z" fill="#353535" fill-rule="evenodd"/></svg><svg width="28" height="28" y="176"><path d="M26.455 0H1.545C.692 0 0 .692 0 1.545v24.91C0 27.308.692 28 1.545 28h13.41V17.157h-3.648v-4.226h3.649V9.815c0-3.617 2.209-5.586 5.435-5.586 1.545 0 2.873.115 3.26.166v3.78l-2.237.001c-1.755 0-2.095.834-2.095 2.057v2.698h4.185l-.545 4.226h-3.64V28h7.136c.853 0 1.545-.692 1.545-1.545V1.545C28 .692 27.308 0 26.455 0" fill="#FFF" fill-rule="evenodd"/></svg><svg width="16" height="16" y="204"><path d="M8 0c1.444 0 2.78.358 4.008 1.075a7.982 7.982 0 0 1 2.917 2.917A7.812 7.812 0 0 1 16 8c0 1.444-.358 2.78-1.075 4.008a7.982 7.982 0 0 1-2.917 2.917A7.812 7.812 0 0 1 8 16a7.812 7.812 0 0 1-4.008-1.075 7.982 7.982 0 0 1-2.917-2.917A7.812 7.812 0 0 1 0 8c0-1.444.358-2.78 1.075-4.008a7.982 7.982 0 0 1 2.917-2.917A7.812 7.812 0 0 1 8 0zm0 4.95c.322 0 .606-.12.85-.358a1.14 1.14 0 0 0 .367-.842c0-.322-.123-.608-.367-.858A1.154 1.154 0 0 0 8 2.517c-.322 0-.606.125-.85.375s-.367.536-.367.858c0 .322.123.603.367.842s.528.358.85.358zM6.833 12.8h2.334a.52.52 0 0 0 .383-.15c.1-.1.15-.228.15-.383v-.534a.52.52 0 0 0-.15-.383.52.52 0 0 0-.383-.15l.016-4.267a.513.513 0 0 0-.158-.375.513.513 0 0 0-.375-.158H6.833a.52.52 0 0 0-.383.15.52.52 0 0 0-.15.383v.534c0 .155.05.283.15.383.1.1.228.15.383.15v3.2a.52.52 0 0 0-.383.15.52.52 0 0 0-.15.383v.534c0 .155.05.283.15.383.1.1.228.15.383.15z" fill="#353535" fill-rule="evenodd"/></svg><svg width="33" height="33" y="220"><path d="M16.5 0c2.98 0 5.735.74 8.267 2.217a16.462 16.462 0 0 1 6.016 6.016C32.26 10.765 33 13.52 33 16.5c0 2.98-.74 5.735-2.217 8.267a16.462 16.462 0 0 1-6.016 6.016C22.235 32.26 19.48 33 16.5 33c-2.98 0-5.735-.74-8.267-2.217a16.462 16.462 0 0 1-6.016-6.016C.74 22.235 0 19.48 0 16.5c0-2.98.74-5.735 2.217-8.267a16.462 16.462 0 0 1 6.016-6.016C10.765.74 13.52 0 16.5 0zm0 10.21c.665 0 1.249-.247 1.753-.74.504-.492.756-1.071.756-1.736 0-.664-.252-1.254-.756-1.77s-1.088-.773-1.753-.773c-.665 0-1.249.257-1.753.773-.504.516-.756 1.106-.756 1.77 0 .665.252 1.244.756 1.736.504.493 1.088.74 1.753.74zM14.094 26.4h4.812c.321 0 .585-.103.79-.31.207-.206.31-.47.31-.79v-1.1c0-.32-.103-.584-.31-.79a1.07 1.07 0 0 0-.79-.31l.035-8.8c0-.298-.11-.556-.327-.773a1.057 1.057 0 0 0-.773-.327h-3.747c-.321 0-.585.103-.79.31a1.07 1.07 0 0 0-.31.79v1.1c0 .32.103.584.31.79.205.207.469.31.79.31v6.6c-.321 0-.585.103-.79.31a1.07 1.07 0 0 0-.31.79v1.1c0 .32.103.584.31.79.205.207.469.31.79.31z" fill="#55832A" fill-rule="evenodd"/></svg><svg width="16" height="16" y="253"><path d="M8 0c1.444 0 2.78.358 4.008 1.075a7.982 7.982 0 0 1 2.917 2.917A7.812 7.812 0 0 1 16 8c0 1.444-.358 2.78-1.075 4.008a7.982 7.982 0 0 1-2.917 2.917A7.812 7.812 0 0 1 8 16a7.812 7.812 0 0 1-4.008-1.075 7.982 7.982 0 0 1-2.917-2.917A7.812 7.812 0 0 1 0 8c0-1.444.358-2.78 1.075-4.008a7.982 7.982 0 0 1 2.917-2.917A7.812 7.812 0 0 1 8 0zm0 4.95c.322 0 .606-.12.85-.358a1.14 1.14 0 0 0 .367-.842c0-.322-.123-.608-.367-.858A1.154 1.154 0 0 0 8 2.517c-.322 0-.606.125-.85.375s-.367.536-.367.858c0 .322.123.603.367.842s.528.358.85.358zM6.833 12.8h2.334a.52.52 0 0 0 .383-.15c.1-.1.15-.228.15-.383v-.534a.52.52 0 0 0-.15-.383.52.52 0 0 0-.383-.15l.016-4.267a.513.513 0 0 0-.158-.375.513.513 0 0 0-.375-.158H6.833a.52.52 0 0 0-.383.15.52.52 0 0 0-.15.383v.534c0 .155.05.283.15.383.1.1.228.15.383.15v3.2a.52.52 0 0 0-.383.15.52.52 0 0 0-.15.383v.534c0 .155.05.283.15.383.1.1.228.15.383.15z" fill="#999" fill-rule="evenodd"/></svg><svg width="16" height="16" y="269"><path d="M8 0c1.444 0 2.78.358 4.008 1.075a7.982 7.982 0 0 1 2.917 2.917A7.812 7.812 0 0 1 16 8c0 1.444-.358 2.78-1.075 4.008a7.982 7.982 0 0 1-2.917 2.917A7.812 7.812 0 0 1 8 16a7.812 7.812 0 0 1-4.008-1.075 7.982 7.982 0 0 1-2.917-2.917A7.812 7.812 0 0 1 0 8c0-1.444.358-2.78 1.075-4.008a7.982 7.982 0 0 1 2.917-2.917A7.812 7.812 0 0 1 8 0zm0 4.95c.322 0 .606-.12.85-.358a1.14 1.14 0 0 0 .367-.842c0-.322-.123-.608-.367-.858A1.154 1.154 0 0 0 8 2.517c-.322 0-.606.125-.85.375s-.367.536-.367.858c0 .322.123.603.367.842s.528.358.85.358zM6.833 12.8h2.334a.52.52 0 0 0 .383-.15c.1-.1.15-.228.15-.383v-.534a.52.52 0 0 0-.15-.383.52.52 0 0 0-.383-.15l.016-4.267a.513.513 0 0 0-.158-.375.513.513 0 0 0-.375-.158H6.833a.52.52 0 0 0-.383.15.52.52 0 0 0-.15.383v.534c0 .155.05.283.15.383.1.1.228.15.383.15v3.2a.52.52 0 0 0-.383.15.52.52 0 0 0-.15.383v.534c0 .155.05.283.15.383.1.1.228.15.383.15z" fill="#FFF" fill-rule="evenodd"/></svg><svg width="8" height="11" y="285"><path d="M6.052.158a.615.615 0 0 1 .656 0c.214.107.33.291.35.554.01.01.024.221.044.634.019.414.04.99.065 1.728.024.74.037 1.45.037 2.13 0 .68-.013 1.39-.037 2.129-.024.739-.046 1.315-.065 1.728-.02.413-.034.625-.044.634a.674.674 0 0 1-.35.554.615.615 0 0 1-.656 0 22.524 22.524 0 0 1-2.844-1.932c-.982-.773-1.697-1.37-2.144-1.794a15.651 15.651 0 0 1-.86-.853.697.697 0 0 1-.175-.466c0-.175.058-.33.175-.467.126-.146.413-.43.86-.853S2.226 2.863 3.208 2.09A22.524 22.524 0 0 1 6.052.158z" fill="#353535" fill-rule="evenodd"/></svg><svg width="137" height="36" y="296"><g fill="none" fill-rule="evenodd"><path d="M20.346 33.902c-2.032-2-4.02-4.052-5.913-6.186-.875-.986-1.159-.677-2.207.012 0 0-2.883 2.35-6.19 5.03-2.73 2.212-3.59 2.728-4.582 2.728 0 0-.73.009-.955-.292-.238-.282-.334-1.202 1.615-3.591C5.037 28.019 4.203 29.14 7.29 25.6c3.975-4.557 2.396-2.624 6.259-7.28.714-.861 1.136-.909 1.852-.036 2.982 3.634 6.049 7.197 9.007 10.852.89 1.098 1.834 2.303 2.28 3.62 0 .33.12.618-.244 1.235-2.02 2.148-3.97 2.003-6.098-.09z" fill="#E6E6E6"/><path d="M7.227 10.827c2.032 1.999 4.02 4.052 5.913 6.186.875.986 1.35.79 2.207-.013 4.958-4.649 9.93-9.285 15.006-13.8C32.914.898 34.291.116 35.141.116c0 0 .63-.007.856.294.237.282-.317 1.196-.78 1.714C32.085 5.626 28.815 9 25.727 12.54c-3.975 4.557-7.84 9.213-11.703 13.869-.714.86-1.136.908-1.852.035-2.983-3.634-6.049-7.197-9.007-10.851-.89-1.099-1.834-2.303-2.28-3.62 0-.33-.12-.618.243-1.236 2.021-2.147 3.971-2.002 6.099.09zm70.676 6.965l.173-1.1h2.514l.148.965.058.017c.956-.766 1.945-1.15 2.967-1.15 1 0 1.784.35 2.353 1.05.568.699.853 1.793.853 3.281a8.79 8.79 0 0 1-.161 1.721 6.56 6.56 0 0 1-.523 1.561 2.852 2.852 0 0 1-1.08 1.205c-.478.3-1.05.449-1.714.449-.923 0-1.767-.3-2.53-.898v2.753c0 .14.016.23.05.268.032.04.112.065.238.076l1.657.134v1.1h-4.83v-1.117l.693-.1c.126-.023.206-.055.239-.097s.049-.13.049-.264V18.48c0-.185-.074-.305-.223-.361l-.93-.327zm3.09 5.506c.666.61 1.358.912 2.078.906 1.269 0 1.903-1.077 1.903-3.231 0-1.892-.59-2.837-1.772-2.837-.73 0-1.467.305-2.208.915v4.247zm7.228-2.065c0-1.466.366-2.617 1.097-3.454.73-.837 1.82-1.255 3.271-1.255 1.418 0 2.46.4 3.124 1.2.665.8.997 1.895.997 3.282 0 1.5-.354 2.672-1.063 3.517-.709.845-1.783 1.268-3.222 1.268-1.462 0-2.528-.407-3.198-1.221-.67-.815-1.006-1.927-1.006-3.337zm2.02-.1c0 2.131.743 3.196 2.229 3.193 1.486-.003 2.23-1.073 2.23-3.21 0-1.08-.178-1.867-.532-2.36-.355-.492-.897-.738-1.628-.738-1.533 0-2.3 1.038-2.3 3.114zm7.491 4.448v-1.083l.964-.134c.11-.011.183-.04.219-.088.035-.048.053-.133.053-.256v-9.628c0-.196-.074-.316-.222-.36l-.965-.328.174-1.1h2.95V24.02c0 .14.015.23.045.268.03.04.106.065.227.076l.948.117v1.1h-4.393zm5.093 0v-1.083l1.014-.134c.11-.011.183-.04.218-.088.036-.048.054-.133.054-.256v-5.54c0-.196-.074-.316-.223-.361l-.93-.327.172-1.1h2.918v7.328c0 .14.015.23.045.268.03.04.106.065.227.076l.997.117v1.1h-4.492zm.775-11.86c0-.403.11-.714.33-.932.22-.218.532-.327.94-.327.395 0 .705.109.93.327.226.218.338.529.338.932 0 .414-.112.731-.338.952-.225.221-.535.332-.93.332-.408 0-.72-.11-.94-.332-.22-.22-.33-.538-.33-.952zm4.409 7.529c0-1.561.408-2.74 1.224-3.534.816-.794 1.902-1.192 3.26-1.192 1.137 0 2.054.204 2.752.613v2.442l-1.401-.067-.198-1.133c-.01-.112-.074-.193-.19-.243-.258-.1-.607-.151-1.046-.151-.709 0-1.283.249-1.723.747-.44.498-.659 1.284-.659 2.358 0 2.076.846 3.114 2.539 3.114.774 0 1.488-.176 2.142-.528l.552 1.334c-.824.515-1.83.775-3.016.78-1.417 0-2.478-.41-3.181-1.229-.703-.82-1.055-1.923-1.055-3.311zm8.143 4.33v-1.082l1.013-.134c.11-.011.183-.04.219-.088.035-.048.053-.133.053-.256v-5.54c0-.196-.074-.316-.222-.361l-.932-.327.173-1.1h2.918v7.328c0 .14.015.23.045.268.03.04.106.065.227.076l.997.117v1.1h-4.491zm.774-11.86c0-.402.11-.713.33-.931.22-.218.533-.327.94-.327.395 0 .705.109.93.327.226.218.339.529.339.932 0 .414-.113.731-.338.952-.226.221-.536.332-.932.332-.406 0-.72-.11-.94-.332-.219-.22-.329-.538-.329-.952zm4.41 7.37c0-1.488.37-2.621 1.112-3.4.742-.777 1.698-1.166 2.868-1.166 2.384 0 3.577 1.38 3.577 4.138 0 .342-.017.675-.05 1h-5.447c.044.838.246 1.472.605 1.9.36.428.933.642 1.719.642.709 0 1.535-.201 2.48-.604l.544 1.377a7.006 7.006 0 0 1-3.238.814c-2.78-.006-4.17-1.573-4.17-4.7zm2.076-.856h3.544c0-1.477-.558-2.216-1.673-2.216-.516 0-.946.184-1.29.55-.343.367-.537.922-.58 1.666zm6.66 4.952v-2.341l1.4.092.165 1.05c.033.128.102.206.206.234a4.95 4.95 0 0 0 1.517.244c1.126 0 1.69-.395 1.69-1.184a.888.888 0 0 0-.33-.697c-.22-.19-.42-.312-.598-.365a18.313 18.313 0 0 0-1.018-.247 8.663 8.663 0 0 0-.264-.067 8.646 8.646 0 0 1-.774-.198 4.805 4.805 0 0 1-.697-.293 2.078 2.078 0 0 1-.618-.45 2.173 2.173 0 0 1-.387-.654 2.502 2.502 0 0 1-.16-.932c0-.974.334-1.693 1.005-2.157.67-.465 1.51-.697 2.521-.697 1.105 0 2.05.165 2.835.495v2.325l-1.4-.092-.182-.99c-.01-.112-.074-.193-.19-.244a4.282 4.282 0 0 0-1.21-.176c-1.072 0-1.608.36-1.608 1.083 0 .15.02.284.062.398.041.115.12.219.239.311.118.092.218.167.3.222.083.056.226.118.43.185l.444.134c.094.028.272.07.536.126.335.079.607.15.816.214.209.065.457.168.746.31.288.144.513.302.675.475.163.174.303.406.42.697.119.29.178.627.178 1.007 0 .951-.335 1.654-1.005 2.107-.67.453-1.528.68-2.572.68a9.204 9.204 0 0 1-1.949-.206c-.634-.137-1.042-.27-1.224-.399zM28.983 16.737a4.32 4.32 0 0 1 1.692.318c.504.212.931.512 1.283.902.352.39.622.861.81 1.414a5.7 5.7 0 0 1 .283 1.852c0 .688-.094 1.307-.283 1.857a4.018 4.018 0 0 1-.81 1.41c-.352.389-.78.688-1.283.898a4.373 4.373 0 0 1-1.692.313 4.373 4.373 0 0 1-1.692-.313 3.562 3.562 0 0 1-1.287-.899 4.034 4.034 0 0 1-.818-1.41c-.192-.55-.287-1.168-.287-1.856 0-.682.095-1.299.287-1.852a4.028 4.028 0 0 1 .818-1.414c.355-.39.784-.69 1.287-.902a4.32 4.32 0 0 1 1.692-.318zm0 7.77c.844 0 1.474-.288 1.89-.864.417-.576.625-1.38.625-2.411 0-1.037-.208-1.845-.624-2.424-.417-.579-1.047-.868-1.89-.868-.428 0-.8.074-1.115.223a2.092 2.092 0 0 0-.789.645c-.21.28-.368.626-.472 1.036a5.65 5.65 0 0 0-.157 1.388c0 .516.052.977.157 1.384.104.406.261.749.472 1.027.211.278.474.491.79.64.314.15.686.224 1.113.224zm8.515 1.211c-.675 0-1.194-.191-1.557-.575-.363-.384-.544-.937-.544-1.66v-5.328h-1.03a.333.333 0 0 1-.227-.082c-.062-.054-.093-.139-.093-.253v-.61l1.4-.181.347-2.69a.327.327 0 0 1 .346-.293h.76v3h2.446v1.109H36.9v5.226c0 .366.087.639.262.816.174.178.4.267.675.267.157 0 .294-.022.41-.065.115-.043.214-.09.299-.142a3.26 3.26 0 0 0 .215-.142.279.279 0 0 1 .156-.064c.079 0 .15.049.211.146l.439.73a2.79 2.79 0 0 1-.937.58 3.13 3.13 0 0 1-1.13.211zm7.09-8.981c.511 0 .984.087 1.417.262.433.175.807.427 1.122.756.315.33.562.736.739 1.22.177.485.266 1.036.266 1.655 0 .24-.026.401-.076.482-.05.08-.147.12-.287.12H42.08c.011.55.084 1.028.22 1.435.134.407.32.747.556 1.019.236.272.518.475.844.61.326.135.692.202 1.097.202.377 0 .702-.044.975-.133a4.59 4.59 0 0 0 .705-.288c.197-.103.361-.2.493-.288.133-.089.246-.133.342-.133.124 0 .22.048.287.146l.422.558a2.87 2.87 0 0 1-.667.598 4.12 4.12 0 0 1-.831.417 5.494 5.494 0 0 1-1.852.327 4.266 4.266 0 0 1-1.633-.306 3.582 3.582 0 0 1-1.292-.894c-.362-.392-.645-.878-.848-1.457-.202-.578-.304-1.243-.304-1.994 0-.607.092-1.174.275-1.701.183-.528.446-.985.789-1.371.343-.387.762-.69 1.257-.911.495-.221 1.052-.331 1.671-.331zm.033 1.126c-.726 0-1.297.213-1.713.64-.417.427-.675 1.018-.777 1.775h4.65c0-.355-.047-.68-.143-.976a2.185 2.185 0 0 0-.422-.765 1.89 1.89 0 0 0-.68-.498 2.255 2.255 0 0 0-.915-.176zm9.021 7.718v-7.4l-.945-.112a.746.746 0 0 1-.29-.133c-.077-.06-.115-.148-.115-.263v-.627h1.35v-.842c0-.499.07-.941.207-1.328a2.7 2.7 0 0 1 .591-.98 2.5 2.5 0 0 1 .924-.606c.36-.138.765-.206 1.215-.206.383 0 .737.057 1.064.172l-.034.765c-.006.114-.054.183-.144.206-.09.023-.216.034-.38.034h-.26c-.26 0-.495.035-.706.103-.21.07-.392.18-.544.336a1.524 1.524 0 0 0-.35.61 3.08 3.08 0 0 0-.123.937v.799h2.473v1.109h-2.422v7.426h-1.51zm8.811-8.844a4.32 4.32 0 0 1 1.692.318c.504.212.931.512 1.283.902.351.39.621.861.81 1.414.188.553.283 1.17.283 1.852 0 .688-.095 1.307-.283 1.857a4.018 4.018 0 0 1-.81 1.41c-.352.389-.78.688-1.283.898a4.373 4.373 0 0 1-1.692.313 4.373 4.373 0 0 1-1.692-.313 3.562 3.562 0 0 1-1.287-.899 4.034 4.034 0 0 1-.819-1.41 5.658 5.658 0 0 1-.287-1.856c0-.682.096-1.299.287-1.852a4.028 4.028 0 0 1 .819-1.414c.354-.39.783-.69 1.287-.902a4.32 4.32 0 0 1 1.692-.318zm0 7.77c.844 0 1.474-.288 1.89-.864.417-.576.625-1.38.625-2.411 0-1.037-.208-1.845-.625-2.424-.416-.579-1.046-.868-1.89-.868-.428 0-.799.074-1.114.223a2.092 2.092 0 0 0-.789.645c-.211.28-.369.626-.473 1.036a5.65 5.65 0 0 0-.156 1.388c0 .516.052.977.156 1.384.104.406.262.749.473 1.027a2.1 2.1 0 0 0 .789.64c.315.15.686.224 1.114.224zm5.924 1.074v-8.707h.861c.163 0 .276.032.338.095s.104.172.126.326l.102 1.358c.292-.607.654-1.081 1.084-1.422.43-.341.935-.512 1.515-.512a2.214 2.214 0 0 1 1.173.31l-.194 1.143c-.04.143-.127.215-.262.215-.079 0-.2-.027-.363-.082-.163-.054-.39-.081-.683-.081-.524 0-.961.154-1.313.464-.351.31-.645.759-.882 1.35v5.543h-1.502z" fill="#353535"/></g></svg><svg width="137" height="35" y="332"><g fill="#FFF" fill-rule="evenodd"><path d="M6.926 10.628c2.043 1.962 4.041 3.978 5.944 6.073.88.968 1.358.775 2.219-.013 4.984-4.563 9.982-9.114 15.085-13.546C32.748.881 34.132.112 34.987.112c0 0 .634-.006.86.29.239.277-.319 1.174-.784 1.682-3.148 3.437-6.436 6.75-9.54 10.225-3.995 4.473-7.881 9.044-11.764 13.614-.718.846-1.142.892-1.862.036-2.998-3.568-6.08-7.066-9.054-10.653-.894-1.079-1.844-2.26-2.292-3.554 0-.324-.122-.606.245-1.213 2.031-2.108 3.99-1.965 6.13.09z"/><path d="M20.114 33.28a125.135 125.135 0 0 1-5.944-6.072c-.88-.968-1.165-.665-2.219.012 0 0-2.898 2.306-6.221 4.937-2.745 2.172-3.61 2.678-4.607 2.678 0 0-.734.01-.96-.286-.239-.277-.336-1.18 1.623-3.526 2.938-3.518 2.1-2.416 5.204-5.891 3.995-4.474 2.408-2.577 6.291-7.147.718-.846 1.142-.892 1.862-.035 2.998 3.567 6.08 7.065 9.055 10.652.893 1.079 1.843 2.261 2.29 3.555 0 .323.123.606-.243 1.212-2.032 2.108-3.992 1.966-6.13-.089z" fill-opacity=".12"/><path d="M28.704 16.068c.628 0 1.193.104 1.697.312a3.64 3.64 0 0 1 1.29.886c.355.382.628.845.818 1.388.19.543.284 1.149.284 1.818 0 .675-.095 1.283-.284 1.823a3.89 3.89 0 0 1-.819 1.383 3.59 3.59 0 0 1-1.29.882 4.457 4.457 0 0 1-1.696.308c-.634 0-1.203-.103-1.71-.308a3.583 3.583 0 0 1-1.293-.882 3.89 3.89 0 0 1-.819-1.383c-.19-.54-.284-1.148-.284-1.823a5.5 5.5 0 0 1 .284-1.818c.19-.543.462-1.006.819-1.388a3.628 3.628 0 0 1 1.293-.886c.507-.208 1.076-.312 1.71-.312zm0 7.627c.848 0 1.482-.282 1.9-.848.419-.565.628-1.354.628-2.366 0-1.019-.21-1.812-.628-2.38-.418-.568-1.052-.852-1.9-.852-.43 0-.805.073-1.124.22-.32.146-.586.357-.798.632-.212.276-.37.615-.475 1.017a5.422 5.422 0 0 0-.157 1.363c0 1.012.211 1.801.632 2.366.422.566 1.062.848 1.922.848zm8.484 1.19c-.68 0-1.2-.188-1.566-.565-.364-.377-.547-.92-.547-1.629V17.46H34.04a.34.34 0 0 1-.229-.08c-.062-.054-.093-.137-.093-.25v-.598l1.408-.177.348-2.641a.336.336 0 0 1 .348-.287h.763v2.945h2.486v1.088h-2.486v5.13c0 .36.088.627.263.802a.921.921 0 0 0 .679.261c.158 0 .295-.021.411-.063a1.77 1.77 0 0 0 .302-.14c.084-.05.156-.096.216-.139a.284.284 0 0 1 .157-.063c.079 0 .15.048.212.144l.441.717a2.83 2.83 0 0 1-.942.57 3.213 3.213 0 0 1-1.136.206zm6.965-8.817c.514 0 .99.086 1.43.257.437.172.816.42 1.136.743.32.323.57.722.75 1.198.182.475.272 1.016.272 1.624 0 .236-.025.394-.076.473-.051.078-.147.118-.289.118h-5.743c.011.54.085 1.01.22 1.409.136.4.323.732.56 1 .238.267.52.466.849.599.328.132.695.198 1.103.198.379 0 .705-.044.98-.13.274-.088.51-.182.708-.284.198-.1.363-.195.496-.282.133-.087.248-.131.344-.131.124 0 .22.048.288.143l.424.549c-.186.225-.41.42-.67.586-.26.166-.539.303-.835.41a5.33 5.33 0 0 1-.92.24c-.318.053-.632.08-.943.08a4.39 4.39 0 0 1-1.641-.3c-.5-.2-.933-.492-1.298-.877a4.021 4.021 0 0 1-.853-1.43c-.203-.568-.305-1.22-.305-1.958 0-.596.092-1.153.276-1.67.183-.518.448-.966.793-1.346.345-.38.766-.678 1.264-.894.498-.217 1.057-.325 1.68-.325zm.034 1.105c-.73 0-1.304.21-1.723.629-.418.419-.678 1-.78 1.742h4.7c0-.349-.05-.668-.149-.958a2.148 2.148 0 0 0-.432-.75 1.93 1.93 0 0 0-.692-.49 2.345 2.345 0 0 0-.924-.173zm10.307 7.577v-7.265l-.95-.11a.758.758 0 0 1-.293-.13.308.308 0 0 1-.114-.258v-.615h1.357v-.827c0-.49.07-.924.208-1.304.139-.38.336-.7.594-.962.257-.261.567-.46.929-.595a3.475 3.475 0 0 1 1.221-.202 3.2 3.2 0 0 1 1.06.169l-.033.75c-.011.136-.086.209-.225.22a7.206 7.206 0 0 1-.556.017c-.26 0-.496.034-.708.101a1.34 1.34 0 0 0-.547.33 1.47 1.47 0 0 0-.352.598 2.957 2.957 0 0 0-.123.92v.785h2.477v1.088h-2.426v7.29h-1.519zm8.738-8.682c.628 0 1.194.104 1.697.312a3.64 3.64 0 0 1 1.29.886c.356.382.629.845.818 1.388.19.543.284 1.149.284 1.818 0 .675-.094 1.283-.284 1.823a3.89 3.89 0 0 1-.819 1.383 3.59 3.59 0 0 1-1.29.882c-.502.205-1.068.308-1.696.308a4.526 4.526 0 0 1-1.71-.308 3.583 3.583 0 0 1-1.293-.882 3.89 3.89 0 0 1-.819-1.383c-.19-.54-.284-1.148-.284-1.823a5.5 5.5 0 0 1 .284-1.818c.19-.543.463-1.006.819-1.388a3.628 3.628 0 0 1 1.294-.886c.506-.208 1.076-.312 1.71-.312zm0 7.627c.849 0 1.482-.282 1.9-.848.42-.565.628-1.354.628-2.366 0-1.019-.209-1.812-.627-2.38-.419-.568-1.052-.852-1.9-.852-.43 0-.805.073-1.125.22-.32.146-.585.357-.797.632-.212.276-.37.615-.475 1.017a5.422 5.422 0 0 0-.157 1.363c0 1.012.21 1.801.632 2.366.421.566 1.062.848 1.921.848zm5.998 1.055v-8.547h.865c.164 0 .278.03.34.093.062.062.104.168.127.32l.093 1.3c.272-.585.607-1.042 1.006-1.371.398-.33.883-.494 1.455-.494.18 0 .355.02.521.059.167.04.316.101.446.186l-.11 1.122c-.034.14-.12.21-.255.21a1.76 1.76 0 0 1-.348-.05 2.407 2.407 0 0 0-.517-.05c-.272 0-.515.04-.73.122-.215.081-.406.2-.573.354a2.422 2.422 0 0 0-.445.57 4.99 4.99 0 0 0-.356.776v5.4H69.23zm8.308-7.646l.174-1.08h2.527l.149.948.058.016c.961-.752 1.955-1.129 2.982-1.129 1.006 0 1.794.344 2.366 1.03.571.687.857 1.76.857 3.222 0 .599-.054 1.162-.161 1.69a6.336 6.336 0 0 1-.526 1.532 2.823 2.823 0 0 1-1.086 1.182c-.48.294-1.055.441-1.723.441-.928 0-1.776-.294-2.543-.882v2.703c0 .137.016.225.05.264.032.038.113.063.24.074l1.665.132v1.079h-4.855V27.23l.696-.099c.127-.022.207-.053.24-.094.033-.042.05-.128.05-.26v-8.998c0-.181-.075-.3-.224-.354l-.936-.321zm3.107 5.405c.668.599 1.364.895 2.088.89 1.275 0 1.913-1.058 1.913-3.173 0-1.856-.593-2.785-1.78-2.785-.735 0-1.476.3-2.221.898v4.17zm7.266-2.027c0-1.44.367-2.57 1.101-3.39.735-.822 1.831-1.233 3.29-1.233 1.424 0 2.471.393 3.14 1.179.668.785 1.002 1.859 1.002 3.221 0 1.473-.356 2.623-1.069 3.453-.712.83-1.792 1.244-3.24 1.244-1.468 0-2.54-.4-3.214-1.199-.674-.8-1.01-1.89-1.01-3.275zm2.03-.1c0 2.094.746 3.139 2.24 3.136 1.494-.003 2.241-1.053 2.241-3.152 0-1.06-.178-1.832-.534-2.315-.356-.483-.902-.725-1.636-.725-1.541 0-2.312 1.019-2.312 3.057zm7.53 4.368v-1.063l.97-.132c.11-.01.183-.04.219-.086.036-.047.054-.13.054-.252v-9.45c0-.193-.075-.31-.224-.355l-.97-.321.175-1.08h2.966v11.206c0 .138.015.226.045.264.03.039.107.063.228.074l.953.116v1.079H97.47zm5.12 0v-1.063l1.02-.132c.11-.01.183-.04.219-.086.036-.047.054-.13.054-.252V17.78c0-.192-.075-.31-.224-.354l-.936-.321.174-1.08h2.932v7.193c0 .138.016.226.046.264.03.039.106.063.228.074l1.002.116v1.079h-4.515zm.779-11.643c0-.395.11-.7.331-.914.221-.215.536-.322.945-.322.397 0 .71.107.936.322.226.214.34.519.34.914 0 .407-.114.718-.34.935-.227.217-.539.326-.936.326-.409 0-.724-.109-.945-.326-.22-.217-.331-.528-.331-.935zm4.432 7.391c0-1.532.41-2.689 1.23-3.469.82-.78 1.913-1.17 3.277-1.17 1.143 0 2.066.2 2.767.602v2.398l-1.408-.066-.199-1.113c-.011-.11-.075-.19-.19-.239-.26-.099-.61-.148-1.053-.148-.712 0-1.29.244-1.731.733-.442.49-.663 1.261-.663 2.316 0 2.038.85 3.057 2.552 3.057a4.54 4.54 0 0 0 2.154-.52l.555 1.31c-.829.506-1.84.762-3.032.767-1.425 0-2.491-.402-3.198-1.207-.707-.805-1.06-1.888-1.06-3.25zm8.186 4.252v-1.063l1.019-.132c.11-.01.183-.04.22-.086.035-.047.053-.13.053-.252V17.78c0-.192-.075-.31-.224-.354l-.936-.321.174-1.08h2.933v7.193c0 .138.015.226.046.264.03.039.106.063.227.074l1.003.116v1.079h-4.515zm.778-11.643c0-.395.11-.7.332-.914.22-.215.536-.322.944-.322.398 0 .71.107.936.322.227.214.34.519.34.914 0 .407-.113.718-.34.935-.226.217-.538.326-.936.326-.408 0-.723-.109-.944-.326-.221-.217-.332-.528-.332-.935zm4.433 7.235c0-1.461.373-2.574 1.118-3.337.746-.764 1.707-1.146 2.883-1.146 2.397 0 3.596 1.354 3.596 4.063 0 .335-.017.661-.05.98h-5.476c.044.824.247 1.446.609 1.866.362.42.937.63 1.727.63.713 0 1.544-.197 2.494-.593l.547 1.352a7.179 7.179 0 0 1-3.256.799c-2.795-.005-4.192-1.544-4.192-4.614zm2.087-.84h3.563c0-1.45-.56-2.176-1.682-2.176-.519 0-.951.18-1.296.54-.346.36-.54.905-.585 1.635zm6.695 4.86v-2.298l1.408.09.166 1.03c.033.127.102.204.207.231.508.16 1.016.24 1.524.24 1.132 0 1.699-.388 1.699-1.163a.862.862 0 0 0-.332-.684c-.22-.186-.42-.306-.6-.358-.18-.052-.521-.133-1.024-.243a8.879 8.879 0 0 0-.265-.066 8.862 8.862 0 0 1-.778-.194 4.895 4.895 0 0 1-.7-.288 2.087 2.087 0 0 1-.622-.44 2.123 2.123 0 0 1-.39-.644 2.405 2.405 0 0 1-.16-.914c0-.956.336-1.662 1.01-2.118.674-.456 1.519-.684 2.535-.684 1.11 0 2.06.162 2.85.486v2.283l-1.408-.09-.183-.973c-.01-.11-.074-.19-.19-.239a4.4 4.4 0 0 0-1.218-.173c-1.077 0-1.616.354-1.616 1.063 0 .148.021.279.063.391a.687.687 0 0 0 .24.305c.119.09.22.164.302.218.083.055.227.116.431.182l.447.132c.094.027.274.068.539.123.337.077.61.147.82.21.21.063.46.165.75.305.29.14.516.295.68.466.162.17.303.398.422.684.118.285.178.615.178.988 0 .934-.337 1.624-1.01 2.069-.675.445-1.536.667-2.586.667a9.466 9.466 0 0 1-1.96-.202c-.637-.134-1.047-.265-1.23-.391z"/></g></svg><svg width="21" height="20" y="367"><path d="M0 0h21v4H0V0zm0 16h21v4H0v-4zm0-8h21v4H0V8z" fill="#FFF" fill-rule="evenodd"/></svg><svg width="21" height="20" y="387"><path d="M21 0v4H0V0h21zM0 16h21v4H0v-4zm0-8h21v4H0V8z" fill="#353535" fill-rule="evenodd"/></svg><svg width="33" height="30" y="407"><path d="M17.6 3.403c.78-1.375 1.73-2.286 2.853-2.733C21.576.223 23.157 0 25.197 0H27.5v20.9h-2.166c-3.185 0-5.763.573-7.734 1.719V3.403zM5.5 20.9V0h2.338c2.04 0 3.615.223 4.726.67 1.112.447 2.057 1.358 2.836 2.733V22.62c-1.97-1.146-4.537-1.719-7.7-1.719H5.5zM31.866 2.2c.298 0 .561.115.79.344.23.229.344.492.344.79v23.032c0 .298-.115.561-.344.79-.229.23-.492.344-.79.344H20.453c-.367.665-.905 1.197-1.616 1.598-.71.401-1.49.602-2.337.602-.848 0-1.627-.2-2.338-.602-.71-.4-1.248-.933-1.615-1.598H1.134c-.298 0-.561-.115-.79-.344a1.087 1.087 0 0 1-.344-.79V3.334c0-.298.115-.561.344-.79.229-.23.492-.344.79-.344H3.3V22c0 .32.103.584.31.79.206.207.47.31.79.31h3.3c3.781 0 6.44.836 7.975 2.51.23.229.504.343.825.343.32 0 .596-.114.825-.344C18.86 23.936 21.519 23.1 25.3 23.1h3.334c.298 0 .55-.109.757-.327.206-.217.309-.475.309-.773V2.2h2.166z" fill="#55832A" fill-rule="evenodd"/></svg><svg width="16" height="16" y="437"><path d="M15.05.233c.3.211.439.506.417.884-.323 4.855-.884 9.15-1.684 12.883-.089.356-.283.6-.583.733a.97.97 0 0 1-.467.117 1.22 1.22 0 0 1-.483-.117l-3.483-1.766-1.55 2.466c-.2.378-.506.567-.917.567a2 2 0 0 1-.283-.033c-.456-.111-.684-.461-.684-1.05V11.6l5.334-6.117-7.184 4.667-2.9-1.283A1.072 1.072 0 0 1 0 8.033a1.08 1.08 0 0 1 .383-.95 32.842 32.842 0 0 1 3.709-2.591c1.35-.817 2.55-1.475 3.6-1.975 1.05-.5 2.105-.953 3.166-1.359A50.765 50.765 0 0 1 13.1.342c.433-.14.761-.236.983-.292a.986.986 0 0 1 .967.183z" fill="#FFF" fill-rule="evenodd"/></svg><svg width="9" height="12" y="453"><path d="M.553 11.713c-.246-.123-.38-.336-.402-.638l-.017-.167c0-.1-.005-.24-.017-.42A29.39 29.39 0 0 1 .058 9.03a57.563 57.563 0 0 0-.024-.955 50.62 50.62 0 0 1-.026-1.057 75.315 75.315 0 0 1 0-2.214c.006-.38.014-.732.026-1.056.01-.324.02-.643.025-.956a29.39 29.39 0 0 1 .058-1.459c.012-.179.017-.319.017-.42L.151.747A.775.775 0 0 1 .553.11a.707.707 0 0 1 .755 0 24.805 24.805 0 0 1 3.278 2.222c1.124.889 1.942 1.576 2.457 2.062.514.487.844.814.989.981a.776.776 0 0 1 .218.545.72.72 0 0 1-.218.528c-.145.168-.475.495-.99.981-.514.487-1.332 1.174-2.456 2.063a24.805 24.805 0 0 1-3.278 2.222.707.707 0 0 1-.755 0z" fill="#FFF" fill-rule="evenodd"/></svg><svg width="8" height="11" y="465"><path d="M1.948 10.842a.615.615 0 0 1-.656 0c-.214-.107-.33-.291-.35-.554-.01-.01-.024-.221-.044-.634-.019-.414-.04-.99-.065-1.728a64.841 64.841 0 0 1-.037-2.13c0-.68.013-1.39.037-2.129.024-.739.046-1.315.065-1.728.02-.413.034-.625.044-.634a.674.674 0 0 1 .35-.554.615.615 0 0 1 .656 0 22.48 22.48 0 0 1 2.844 1.932c.982.773 1.697 1.37 2.144 1.794.447.422.734.707.86.853a.697.697 0 0 1 .175.466c0 .175-.058.33-.175.467-.126.146-.413.43-.86.853S5.774 8.137 4.792 8.91a22.524 22.524 0 0 1-2.844 1.932z" fill="#353535" fill-rule="evenodd"/></svg><svg width="8" height="11" y="476"><path d="M1.948 10.842a.615.615 0 0 1-.656 0c-.214-.107-.33-.291-.35-.554-.01-.01-.024-.221-.044-.634-.019-.414-.04-.99-.065-1.728a64.841 64.841 0 0 1-.037-2.13c0-.68.013-1.39.037-2.129.024-.739.046-1.315.065-1.728.02-.413.034-.625.044-.634a.674.674 0 0 1 .35-.554.615.615 0 0 1 .656 0 22.48 22.48 0 0 1 2.844 1.932c.982.773 1.697 1.37 2.144 1.794.447.422.734.707.86.853a.697.697 0 0 1 .175.466c0 .175-.058.33-.175.467-.126.146-.413.43-.86.853S5.774 8.137 4.792 8.91a22.524 22.524 0 0 1-2.844 1.932z" fill="#55832A" fill-rule="evenodd"/></svg><svg width="36" height="36" y="487"><path d="M18 0c2.438 0 4.767.475 6.987 1.424 2.221.95 4.137 2.23 5.748 3.84 1.612 1.612 2.892 3.528 3.841 5.749A17.58 17.58 0 0 1 36 18c0 2.742-.583 5.33-1.749 7.76-1.166 2.432-2.771 4.486-4.816 6.162a17.888 17.888 0 0 1-6.935 3.515V21.745h3.85l.65-4.5h-4.5V13.29c0-1.36.656-2.039 1.969-2.039h2.865V7.066c-.89-.199-1.969-.298-3.234-.298-2.11 0-3.721.536-4.834 1.608-1.114 1.072-1.67 2.528-1.67 4.368v4.5H13.5v4.5h4.096V36a17.406 17.406 0 0 1-6.856-1.53c-2.168-.972-4.037-2.258-5.607-3.858-1.57-1.6-2.819-3.498-3.744-5.695A17.636 17.636 0 0 1 0 18c0-2.438.475-4.767 1.424-6.987.95-2.221 2.23-4.137 3.84-5.748 1.612-1.612 3.528-2.892 5.749-3.841A17.58 17.58 0 0 1 18 0z" fill="#3B5998" fill-rule="evenodd"/></svg><svg width="36" height="36" y="523"><path d="M18 0c2.45 0 4.784.475 7.005 1.424 2.22.95 4.134 2.226 5.74 3.832 1.605 1.605 2.882 3.518 3.831 5.74A17.638 17.638 0 0 1 36 18c0 2.45-.475 4.784-1.424 7.005-.95 2.22-2.226 4.134-3.832 5.74-1.605 1.605-3.518 2.882-5.74 3.831A17.638 17.638 0 0 1 18 36h-.703c.527-1.031.79-2.016.79-2.953 0-1.5-.266-2.742-.799-3.727-.533-.984-1.474-1.95-2.821-2.9-.61-.434-1.207-.97-1.793-1.608-.586-.64-.88-1.175-.88-1.609 0-.55.124-1.016.37-1.397s.773-.888 1.582-1.52a8.005 8.005 0 0 0 2.11-2.418c.515-.92.773-1.901.773-2.944 0-1.348-.287-2.572-.861-3.674-.575-1.102-1.383-1.852-2.426-2.25h3.234l2.303-1.67H8.63a9.26 9.26 0 0 0-3.744.791 9.929 9.929 0 0 0-3.13 2.127c1.477-3.094 3.669-5.575 6.575-7.444C11.238.934 14.461 0 18 0zm9 13.5h4.5v-2.25H27v-4.5h-2.25v4.5h-4.5v2.25h4.5V18H27v-4.5zM9 21.252c-1.313-.047-2.517-.694-3.612-1.942-1.096-1.248-1.755-2.74-1.978-4.474-.223-1.723.047-3.173.809-4.35.761-1.178 1.799-1.744 3.111-1.697 1.336.047 2.552.683 3.648 1.907 1.095 1.225 1.754 2.699 1.977 4.421.223 1.735-.053 3.202-.826 4.404-.774 1.2-1.816 1.778-3.129 1.731zm.334 5.783H7.576c-1.594 0-3.135.293-4.623.88C.984 24.89 0 21.585 0 18c0-.422.012-.744.035-.967.445 1.57 1.339 2.84 2.68 3.806 1.343.967 2.951 1.45 4.826 1.45h.914c-.328.68-.492 1.318-.492 1.916 0 .926.457 1.87 1.371 2.83zm5.959 5.38c.082.315.123.661.123 1.036 0 .88-.152 1.647-.457 2.303a17.744 17.744 0 0 1-6.144-2.25A18.023 18.023 0 0 1 3.92 29.25a8.786 8.786 0 0 1 4.746-1.248c.855 0 1.705.14 2.549.422.164.117.448.31.852.58.405.27.68.457.827.562.146.106.369.27.668.493.298.222.51.404.632.545l.457.518c.182.205.32.413.413.624.094.211.17.434.229.668z" fill="#DD4B39" fill-rule="evenodd"/></svg><svg width="36" height="36" y="559"><path d="M18 0c2.45 0 4.784.475 7.005 1.424 2.22.95 4.134 2.226 5.74 3.832 1.605 1.605 2.882 3.518 3.831 5.74A17.638 17.638 0 0 1 36 18c0 2.45-.475 4.784-1.424 7.005-.95 2.22-2.226 4.134-3.832 5.74-1.605 1.605-3.518 2.882-5.74 3.831A17.638 17.638 0 0 1 18 36c-2.45 0-4.784-.475-7.005-1.424-2.22-.95-4.134-2.226-5.74-3.832-1.605-1.605-2.882-3.518-3.831-5.74A17.638 17.638 0 0 1 0 18c0-2.45.475-4.784 1.424-7.005.95-2.22 2.226-4.134 3.832-5.74 1.605-1.605 3.518-2.882 5.74-3.831A17.638 17.638 0 0 1 18 0zm-7.506 12.006c.902 0 1.629-.252 2.18-.756.55-.504.826-1.13.826-1.88-.023-.763-.305-1.39-.844-1.882-.539-.492-1.26-.738-2.162-.738-.89 0-1.611.246-2.162.738-.55.492-.826 1.12-.826 1.881 0 .75.272 1.377.817 1.881.545.504 1.257.756 2.136.756h.035zM12.744 27V14.256h-4.5V27h4.5zm16.506 0v-6.75c0-2.063-.475-3.703-1.424-4.922-.95-1.219-2.226-1.828-3.832-1.828-.89 0-1.664.243-2.32.73-.656.486-1.131 1.145-1.424 1.977l-.158-1.951h-4.465l.123 2.988V27h4.5v-6.75c0-.926.196-1.658.589-2.197.392-.54.934-.809 1.626-.809.738 0 1.304.229 1.696.686.393.457.589 1.23.589 2.32V27h4.5z" fill="#0976B4" fill-rule="evenodd"/></svg><svg width="36" height="36" y="595"><path d="M18 0c2.45 0 4.784.475 7.005 1.424 2.22.95 4.134 2.226 5.74 3.832 1.605 1.605 2.882 3.518 3.831 5.74A17.638 17.638 0 0 1 36 18c0 2.45-.475 4.784-1.424 7.005-.95 2.22-2.226 4.134-3.832 5.74-1.605 1.605-3.518 2.882-5.74 3.831A17.638 17.638 0 0 1 18 36c-2.45 0-4.784-.475-7.005-1.424-2.22-.95-4.134-2.226-5.74-3.832-1.605-1.605-2.882-3.518-3.831-5.74A17.638 17.638 0 0 1 0 18c0-2.45.475-4.784 1.424-7.005.95-2.22 2.226-4.134 3.832-5.74 1.605-1.605 3.518-2.882 5.74-3.831A17.638 17.638 0 0 1 18 0zm10.951 14.045c.914-.645 1.764-1.524 2.549-2.637-.95.399-1.934.668-2.953.809 1.078-.633 1.81-1.582 2.197-2.848a10.518 10.518 0 0 1-3.2 1.248C26.55 9.54 25.314 9 23.837 9c-1.418 0-2.62.498-3.604 1.494s-1.476 2.21-1.476 3.639c0 .433.04.82.123 1.16a14.236 14.236 0 0 1-5.898-1.582 14.677 14.677 0 0 1-4.684-3.797 5.408 5.408 0 0 0-.668 2.584 5.113 5.113 0 0 0 2.25 4.254 4.516 4.516 0 0 1-2.303-.633v.053c0 1.23.387 2.314 1.16 3.252a5.117 5.117 0 0 0 2.936 1.793c-.363.105-.809.158-1.336.158-.316 0-.639-.03-.967-.088a4.714 4.714 0 0 0 1.784 2.479c.873.632 1.867.96 2.98.984-2.004 1.559-4.12 2.338-6.346 2.338-.176 0-.574-.03-1.195-.088 2.308 1.5 4.916 2.25 7.822 2.25 1.816 0 3.522-.287 5.115-.861 1.594-.575 2.956-1.345 4.087-2.312a15.382 15.382 0 0 0 2.918-3.33 14.804 14.804 0 0 0 1.82-3.93c.398-1.365.597-2.733.597-4.104v-.668z" fill="#65BBF2" fill-rule="evenodd"/></svg><svg width="16" height="16" y="631"><path d="M11.1 4.631a15.62 15.62 0 0 1 3.29 4.997A15.634 15.634 0 0 1 15.6 15.6h-2.944c0-3.475-1.225-6.456-3.675-8.944A13.12 13.12 0 0 0 6.47 4.65c-.9-.55-1.766-.944-2.597-1.181a16.88 16.88 0 0 0-2.147-.488A12.057 12.057 0 0 0 0 2.85V0c.563 0 1.122.028 1.678.084.556.057 1.247.178 2.072.366s1.619.44 2.381.76c.763.318 1.588.771 2.475 1.359A15.5 15.5 0 0 1 11.1 4.63zM7.219 8.437C9.206 10.463 10.2 12.85 10.2 15.6H7.313c0-.913-.185-1.831-.554-2.756a7.275 7.275 0 0 0-1.509-2.381C3.775 8.95 2.025 8.213 0 8.25V5.4c2.825 0 5.231 1.012 7.219 3.037zM0 10.8c1.4.013 2.55.45 3.45 1.313.9.862 1.35 2.024 1.35 3.487H2.25a2.17 2.17 0 0 1-1.594-.656A2.17 2.17 0 0 1 0 13.35V10.8z" fill="#353535" fill-rule="evenodd"/></svg><svg width="29" height="33" y="647"><path d="M27.26 1.134c.389.092.71.293.962.602.252.31.378.647.378 1.014V22c0 .985-.699 2.36-2.097 4.125a28.155 28.155 0 0 1-4.76 4.727c-1.777 1.386-3.158 2.08-4.143 2.08-1.33.045-2.43.068-3.3.068-.825 0-1.65-.011-2.475-.034a58.893 58.893 0 0 1-2.269-.104 96.42 96.42 0 0 1-5.293-.498c-.459-.057-.866-.12-1.22-.189-.356-.069-.654-.12-.895-.155a4.617 4.617 0 0 1-.601-.12l-.24-.034a1.746 1.746 0 0 1-.929-.585A1.55 1.55 0 0 1 0 30.25V2.75c0-.367.126-.705.378-1.014.252-.31.562-.51.928-.602l.24-.034c.161-.046.362-.086.602-.12.241-.035.539-.086.894-.155s.762-.132 1.22-.19A97.79 97.79 0 0 1 9.556.138C10.244.093 11 .058 11.825.035A89.13 89.13 0 0 1 14.3 0c4.102 0 8.422.378 12.96 1.134zM14.3 29.837c.183 0 .464-.005.842-.017.378-.011.648-.017.808-.017.435 0 .82-.177 1.152-.533.332-.355.498-.762.498-1.22v-4.4c0-.458.16-.848.481-1.169.321-.32.71-.481 1.169-.481h4.4c.458 0 .848-.16 1.169-.481.32-.321.481-.71.481-1.169V4.125c-3.85-.619-7.517-.928-11-.928-3.552 0-7.219.31-11 .928v24.75c3.988.642 7.654.962 11 .962zM6.6 9.9V7.7H22v2.2H6.6zM22 14.3H6.6v-2.2H22v2.2zm0 4.4H6.6v-2.2H22v2.2z" fill="#55832A" fill-rule="evenodd"/></svg><svg width="30" height="24" y="680"><path d="M9.435 24A17.622 17.622 0 0 1 0 21.278c.482.056.971.085 1.468.085 2.884 0 5.538-.97 7.644-2.594-2.693-.049-4.966-1.8-5.75-4.208a6.24 6.24 0 0 0 2.78-.104c-2.816-.556-4.937-3.005-4.937-5.94V8.44a6.2 6.2 0 0 0 2.788.758C2.342 8.112 1.255 6.257 1.255 4.155c0-1.11.304-2.151.833-3.046a17.567 17.567 0 0 0 12.687 6.33 5.992 5.992 0 0 1-.16-1.38C14.615 2.713 17.371 0 20.77 0c1.77 0 3.37.736 4.493 1.913A12.445 12.445 0 0 0 29.17.443a6.095 6.095 0 0 1-2.706 3.352A12.459 12.459 0 0 0 30 2.841a12.403 12.403 0 0 1-3.071 3.136c.012.26.018.522.018.784C26.947 14.768 20.756 24 9.435 24" fill="#FFF" fill-rule="evenodd"/></svg><svg width="12" height="8" y="704"><path d="M.954 6.848a.615.615 0 0 0 0 .656c.107.214.292.33.554.35.01.01.222.024.635.044.413.02.989.041 1.728.066A65.64 65.64 0 0 0 6 8c.68 0 1.39-.012 2.13-.036a152.1 152.1 0 0 0 1.727-.066c.413-.02.625-.034.635-.044a.674.674 0 0 0 .554-.35.615.615 0 0 0 0-.656 22.524 22.524 0 0 0-1.932-2.844C8.34 3.022 7.743 2.308 7.32 1.86A15.651 15.651 0 0 0 6.467 1 .697.697 0 0 0 6 .825.697.697 0 0 0 5.533 1c-.146.126-.43.413-.853.86-.423.448-1.02 1.162-1.794 2.144A22.524 22.524 0 0 0 .954 6.848z" fill="#353535" fill-rule="evenodd"/></svg><svg width="33" height="29" y="712"><path d="M32.962 19.387c.069.23.023.47-.137.722s-.367.39-.62.413l-.24.034c-.16.023-.406.052-.739.086-.332.035-.739.069-1.22.103-.481.035-1.14.063-1.977.086-.836.023-1.747.046-2.732.069a6.528 6.528 0 0 0-.688-.464l-.808-.481a17.259 17.259 0 0 1-.636-.396 9.906 9.906 0 0 1-1.065-.618c2.406-3.186 2.887-6.348 1.443-9.488-.572-1.237-1.375-2.2-2.406-2.887a7.852 7.852 0 0 0-3.369-1.272c0-.802.184-1.627.55-2.475.436-.963 1.1-1.673 1.994-2.131A6.027 6.027 0 0 1 23.097 0c.962 0 1.89.23 2.784.688.894.458 1.558 1.168 1.994 2.13 1.1 2.407.561 4.87-1.616 7.391-.665.78-.619 1.593.138 2.441.229.275.899.733 2.01 1.375 1.112.642 1.897 1.123 2.355 1.444.252.183.476.35.67.498.195.15.361.321.499.516.137.195.246.344.327.447.08.103.16.28.24.532.08.253.132.424.155.516a41.95 41.95 0 0 1 .31 1.41zm-23.134.172c-.138.092-.35.224-.636.396-.287.172-.556.332-.808.48a6.528 6.528 0 0 0-.687.465c-.71 0-1.387-.011-2.029-.034a118.286 118.286 0 0 1-2.887-.138c-.367-.023-.67-.046-.911-.069-.24-.023-.441-.045-.602-.068a2.842 2.842 0 0 0-.378-.035l-.103-.034c-.252-.023-.458-.16-.619-.413-.16-.206-.206-.446-.137-.722.046-.16.103-.406.172-.739.069-.332.114-.555.137-.67.023-.114.075-.292.155-.533.08-.24.16-.412.24-.515.08-.103.19-.247.327-.43a3.47 3.47 0 0 1 .481-.516c.184-.16.413-.332.688-.515.481-.344 1.272-.837 2.372-1.478 1.1-.642 1.764-1.089 1.994-1.341.756-.848.802-1.661.137-2.44-2.177-2.521-2.716-4.985-1.616-7.391.436-.963 1.1-1.673 1.994-2.131A6.027 6.027 0 0 1 9.897 0c.962 0 1.89.23 2.784.688.894.458 1.558 1.168 1.994 2.13.366.849.55 1.674.55 2.476-2.75.39-4.687 1.776-5.81 4.16-1.42 3.139-.928 6.301 1.478 9.487a3.622 3.622 0 0 1-.309.206 9.872 9.872 0 0 1-.395.223c-.15.08-.258.144-.327.19h-.034zm6.669 9.041c-.963 0-1.874-.006-2.733-.017a89.156 89.156 0 0 1-2.183-.052 49.643 49.643 0 0 1-1.616-.086L8.78 28.36a22.02 22.02 0 0 1-.773-.068 4.585 4.585 0 0 0-.447-.035l-.172-.034c-.252-.023-.458-.16-.619-.413-.16-.206-.206-.446-.137-.722.046-.16.103-.406.172-.739.069-.332.114-.555.137-.67.023-.114.075-.292.155-.533.08-.24.16-.412.24-.515.08-.103.19-.247.327-.43a3.47 3.47 0 0 1 .481-.516c.184-.16.413-.332.688-.515.481-.344 1.272-.837 2.372-1.478 1.1-.642 1.764-1.089 1.994-1.341.756-.848.802-1.661.137-2.44-2.177-2.521-2.716-4.985-1.616-7.391.436-.963 1.1-1.673 1.994-2.132a6.027 6.027 0 0 1 2.785-.687c.962 0 1.89.23 2.784.687.894.459 1.558 1.17 1.994 2.132 1.1 2.406.561 4.87-1.616 7.39-.665.78-.619 1.593.138 2.441.229.275.899.733 2.01 1.375 1.112.642 1.897 1.123 2.355 1.444.573.412.997.796 1.272 1.151.275.356.464.745.567 1.17.103.423.224.956.361 1.598a.827.827 0 0 1-.137.721c-.16.252-.367.39-.62.413l-.17.034c-.093 0-.242.012-.448.035a22.02 22.02 0 0 1-.773.068c-.31.023-.71.052-1.203.086-.493.035-1.037.063-1.633.086-.596.023-1.318.04-2.166.052-.848.011-1.753.017-2.715.017z" fill="#55832A" fill-rule="evenodd"/></svg><svg width="30" height="20" y="741"><g fill="none" fill-rule="evenodd"><path d="M11.26 10.059h-.253v1.401c0 2.456-1.324 4.641-3.71 4.641-1.635 0-2.05-1.133-2.05-2.806V6.954c0-1.241-.519-1.809-1.738-1.809H.37V8.06h1.038c.364 0 .572.189.572.594v5.343c0 3.75 1.737 5.235 4.565 5.235 2.284 0 3.944-1.43 4.566-2.86h.052s-.026.297-.026.62v.378c0 .972.597 1.538 1.739 1.538h2.168l-3.057-8.363c-.13-.351-.363-.486-.726-.486z" fill="#441B4B"/><path d="M23.187 5.145h-.435c-1.063 0-1.608.351-1.945 1.296l-2.49 7.232c-.26.81-.468 1.97-.468 1.97h-.051s-.208-1.16-.494-1.97l-2.49-7.232c-.338-.945-.856-1.296-1.946-1.296h-1.894V8.06h.286c.363 0 .596.135.726.486l3.788 10.362h3.917L23.48 8.546c.13-.351.363-.486.726-.486h.312v-.2c-.84-.39-1.339-1.34-1.339-2.586 0-.045.008-.084.01-.128z" fill="#E6007E"/><path d="M26.228 2.198c1.18 0 1.574.82 1.574.82h.02s-.02-.158-.02-.358V1.327c0-.158-.08-.231-.222-.231h-.414V.224h.97c.454 0 .645.2.645.672v5.639c0 .157.081.23.223.23h.413v.872h-.938c-.444 0-.626-.21-.626-.566 0-.158.01-.274.01-.274h-.02s-.424.967-1.676.967c-1.383 0-2.251-1.134-2.251-2.783 0-1.69.959-2.783 2.312-2.783zm1.605 2.772c0-.945-.475-1.89-1.454-1.89-.797 0-1.464.693-1.464 1.9 0 1.156.596 1.901 1.444 1.901.757 0 1.474-.556 1.474-1.91z" fill="#373B3A"/></g></svg><svg width="30" height="20" y="761"><path d="M11.26 10.059h-.253v1.401c0 2.456-1.324 4.641-3.71 4.641-1.635 0-2.05-1.133-2.05-2.806V6.954c0-1.241-.519-1.809-1.738-1.809H.37V8.06h1.038c.364 0 .572.189.572.594v5.343c0 3.75 1.737 5.235 4.565 5.235 2.284 0 3.944-1.43 4.566-2.86h.052s-.026.297-.026.62v.378c0 .972.597 1.538 1.739 1.538h2.168l-3.057-8.363c-.13-.351-.363-.486-.726-.486zm11.927-4.914h-.435c-1.063 0-1.608.351-1.945 1.296l-2.49 7.232c-.26.81-.468 1.97-.468 1.97h-.051s-.208-1.16-.494-1.97l-2.49-7.232c-.338-.945-.856-1.296-1.946-1.296h-1.894V8.06h.286c.363 0 .596.135.726.486l3.788 10.362h3.917L23.48 8.546c.13-.351.363-.486.726-.486h.312v-.2c-.84-.39-1.339-1.34-1.339-2.586 0-.045.008-.084.01-.128zm3.041-2.947c1.18 0 1.574.82 1.574.82h.02s-.02-.158-.02-.358V1.327c0-.158-.08-.231-.222-.231h-.414V.224h.97c.454 0 .645.2.645.672v5.639c0 .157.081.23.223.23h.413v.872h-.938c-.444 0-.626-.21-.626-.566 0-.158.01-.274.01-.274h-.02s-.424.967-1.676.967c-1.383 0-2.251-1.134-2.251-2.783 0-1.69.959-2.783 2.312-2.783zm1.605 2.772c0-.945-.475-1.89-1.454-1.89-.797 0-1.464.693-1.464 1.9 0 1.156.596 1.901 1.444 1.901.757 0 1.474-.556 1.474-1.91z" fill="#7C7C7C" fill-rule="evenodd"/></svg></svg>